<svg viewBox="0 0 6434 2084" xmlns="http://www.w3.org/2000/svg" xml:space="preserve" fill-rule="evenodd" clip-rule="evenodd" stroke-linecap="round" stroke-linejoin="round" stroke-miterlimit="1.5"><path fill="#5d67ff" d="M0 0h6433.33v2083.33H0z"/><path fill="none" d="M0 0h1291.67v1291.67H0z"/><g opacity=".54" fill="#fff"><path d="M420.68 354.14a7.89 7.89 0 0 0-7.89-7.89h-15.77a7.89 7.89 0 0 0-7.88 7.89v15.76a7.89 7.89 0 0 0 7.88 7.89h15.77a7.89 7.89 0 0 0 7.88-7.89v-15.76ZM463.56 354.14a7.89 7.89 0 0 0-7.88-7.89H439.9a7.89 7.89 0 0 0-7.88 7.89v15.76a7.89 7.89 0 0 0 7.88 7.89h15.77a7.89 7.89 0 0 0 7.88-7.89v-15.76ZM506.45 354.14a7.89 7.89 0 0 0-7.88-7.89H482.8a7.89 7.89 0 0 0-7.89 7.89v15.76a7.89 7.89 0 0 0 7.89 7.89h15.77a7.89 7.89 0 0 0 7.88-7.89v-15.76Z"/></g><path fill="none" stroke="#fff" stroke-width="25.23" d="M319.76 254.17H971.9v198.04H319.76z"/><path d="M452.33 966.95c7.62 7.63 18.77 12.84 34.27 12.84 21.8 0 32.33-11.14 32.33-25.91 0-17.93-16.96-21.92-30.28-24.95-9.32-2.18-16.1-3.88-16.1-9.32 0-4.85 4.11-8.24 11.86-8.24 7.88 0 16.6 2.79 23.13 8.84l9.57-12.6c-8-7.38-18.65-11.25-31.48-11.25-19.02 0-30.64 10.9-30.64 24.34 0 18.04 16.95 21.67 30.15 24.7 9.33 2.18 16.35 4.24 16.35 10.3 0 4.6-4.6 9.07-14.05 9.07a35.41 35.41 0 0 1-25.67-10.9l-9.44 13.08ZM569.66 978.34h15.38v-58.5h-15.37v39.6c-2.67 3.4-7.4 6.67-13.32 6.67-6.54 0-10.78-2.67-10.78-10.78v-35.48h-15.38v41.53c0 11.39 6.05 18.41 18.89 18.41 9.57 0 16.59-4.36 20.58-8.84v7.39ZM600.3 978.34h15.38v-7.39c4.6 5.7 11.02 8.84 18.04 8.84 14.78 0 25.92-11.14 25.92-30.64 0-19.13-11.02-30.75-25.92-30.75-6.9 0-13.44 3.02-18.04 8.96v-29.8H600.3v80.78Zm15.38-18.77v-20.71c2.54-3.88 8.24-6.78 13.2-6.78 8.96 0 14.9 6.9 14.9 17.07 0 10.18-5.94 16.96-14.9 16.96-4.96 0-10.66-2.79-13.2-6.54ZM743.8 978.34h15.5v-42.27c0-11.98-6.42-17.68-17.2-17.68-8.96 0-16.7 5.33-20.1 10.66-2.18-6.66-7.63-10.65-16.23-10.65-8.96 0-16.7 5.57-19.13 9.08v-7.63h-15.38v58.49h15.38v-39.36c2.3-3.27 6.78-6.9 12.11-6.9 6.3 0 8.72 3.87 8.72 9.32v36.94h15.5v-39.48c2.18-3.15 6.66-6.78 12.1-6.78 6.3 0 8.73 3.87 8.73 9.32v36.94ZM782.06 911.25a9.2 9.2 0 1 0-9.2-9.2c0 5.08 4.24 9.2 9.2 9.2Zm-7.62 67.09h15.37v-58.5h-15.37v58.5ZM824.69 979.79c6.42 0 10.53-1.7 12.83-3.75l-3.27-11.63c-.84.85-3.02 1.7-5.32 1.7-3.4 0-5.33-2.79-5.33-6.42v-26.4h11.87v-13.44H823.6v-15.99h-15.5v15.99h-9.69v13.44h9.69v30.52c0 10.4 5.81 15.98 16.59 15.98Z" fill="#fff" fill-rule="nonzero"/><path fill="none" stroke="#fff" stroke-width="25.23" d="M319.76 839.46H971.9v198.04H319.76z"/><g opacity=".54"><path d="M809.03 599.43a6.7 6.7 0 0 0-9.46 0l-16.82 16.82a6.7 6.7 0 0 0 0 9.46l78.3 78.3a6.7 6.7 0 0 0 9.47 0l16.82-16.81a6.7 6.7 0 0 0 0-9.47l-78.3-78.3Z" fill="#fff"/><path d="M887.34 625.71a6.7 6.7 0 0 0 0-9.46l-16.83-16.82a6.7 6.7 0 0 0-9.46 0l-78.3 78.3a6.7 6.7 0 0 0 0 9.47l16.82 16.82a6.7 6.7 0 0 0 9.46 0l78.3-78.3Z" fill="#fff"/><path fill="none" stroke="#fff" stroke-width="25.23" d="M698.18 552.7H971.9v198.04H698.18z"/></g><path d="M520.16 628.83a5.99 5.99 0 0 0 0-8.46l-15.04-15.05a5.99 5.99 0 0 0-8.47 0l-76.82 76.82a5.99 5.99 0 0 0 0 8.47l15.05 15.04a5.99 5.99 0 0 0 8.46 0l76.82-76.82Z" fill="#fff"/><path d="M434.88 705.65a5.99 5.99 0 0 0 8.46 0l15.05-15.04a5.99 5.99 0 0 0 0-8.47l-45.94-45.93a5.99 5.99 0 0 0-8.46 0l-15.05 15.04a5.99 5.99 0 0 0 0 8.47l45.94 45.93Z" fill="#fff"/><path fill="none" stroke="#fff" stroke-width="25.23" d="M319.76 552.7h273.72v198.04H319.76z"/><path d="m836.33 368.28-49.59-49.58-19.86 19.86 69.45 69.45 66.19-66.19-19.87-19.86-46.32 46.32Z" fill="#fff"/><path d="M1224.7 463.52c34.73 0 59.8-14.79 78.78-38.26l-15.44-9.64c-13.5 18.64-36.97 31.18-63.34 31.18-49.84 0-88.74-38.9-88.74-94.2 0-55.95 38.9-94.21 88.74-94.21 26.36 0 49.84 12.54 63.34 31.19l15.44-9.97c-18.33-22.83-44.05-37.94-78.78-37.94-60.13 0-108.03 45.01-108.03 110.93 0 65.91 47.9 110.92 108.03 110.92ZM1522.76 459.67h18.65V245.2h-27.65l-72.67 177.81-72.99-177.8h-27.33v214.46h18.33V269.32l78.45 190.35h7.08l78.13-190.35v190.35ZM1594.79 459.67h90.03c38.26 0 61.41-22.19 61.41-57.88 0-25.4-18.97-49.2-41.8-52.73 19.3-3.86 37.62-22.19 37.62-49.2 0-33.76-23.15-54.66-59.16-54.66h-88.1v214.47Zm18.33-118.33v-79.42h67.52c27.65 0 42.12 18 42.12 39.87 0 22.19-14.47 39.55-42.12 39.55h-67.52Zm0 101.6v-84.88h68.8c29.9 0 45.02 20.58 45.02 42.44 0 26.05-16.72 42.45-45.02 42.45h-68.8ZM1783.53 459.67H1925v-16.72h-112.85c62.05-50.16 111.89-93.25 111.89-140.51 0-42.45-36.01-60.45-67.52-60.45-30.23 0-56.27 12.54-71.38 33.12l12.54 11.57c11.57-16.4 32.15-27.97 58.84-27.97 23.47 0 48.87 12.86 48.87 43.73 0 41.47-48.87 83.27-121.86 142.11v15.12ZM1136.34 825.69h45.89c44.59 0 72.59-31.88 72.59-71.74 0-39.42-28-71.94-72.6-71.94h-45.88v143.68Zm12.28-11.2V693.2h33.6c38.13 0 59.68 27.14 59.68 60.74s-21.76 60.54-59.67 60.54h-33.6ZM1278.94 773.56c0 32.1 21.76 54.71 52.13 54.71 17.24 0 30.38-6.03 40.72-16.8l-5.82-7.32c-8.83 9.47-20.9 14.43-34.03 14.43-24.56 0-39.64-18.74-40.72-41.36h87.03v-3.02c0-29.94-17.45-55.14-49.11-55.14-28.87 0-50.2 24.34-50.2 54.5Zm49.98-44.81c26.07 0 37.7 21.97 37.91 39.64h-75.6c.85-18.1 13.13-39.64 37.7-39.64ZM1435.12 825.69h12.7l43.95-104.05h-12.7l-37.49 90.9-37.91-90.9h-12.5l43.95 104.05ZM1504.7 773.56c0 32.1 21.76 54.71 52.13 54.71 17.23 0 30.37-6.03 40.71-16.8l-5.81-7.32c-8.84 9.47-20.9 14.43-34.04 14.43-24.56 0-39.64-18.74-40.71-41.36H1604v-3.02c0-29.94-17.44-55.14-49.11-55.14-28.87 0-50.2 24.34-50.2 54.5Zm49.97-44.81c26.07 0 37.7 21.97 37.92 39.64h-75.61c.86-18.1 13.14-39.64 37.7-39.64ZM1632.65 681.36h10.77v144.33h-10.77zM1722.91 828.27c30.8 0 50.2-24.34 50.2-54.71 0-30.38-19.4-54.5-50.2-54.5-30.37 0-49.97 24.12-49.97 54.5 0 30.37 19.6 54.71 49.97 54.71Zm0-10.12c-24.12 0-37.9-21.33-37.9-44.6 0-23.04 13.78-44.37 37.9-44.37 24.56 0 38.13 21.33 38.13 44.38 0 23.26-13.57 44.59-38.13 44.59ZM1813.17 865.32v-56.44c8.4 11.85 21.55 19.4 36.2 19.4 27.78 0 46.52-21.55 46.52-54.72 0-33.4-18.74-54.5-46.53-54.5-15.5 0-28.86 8.4-36.19 18.95v-16.37h-11.2v143.68h11.2Zm70.66-91.76c0 25.2-13.14 44.59-36.4 44.59-14.44 0-28.22-9.05-34.26-18.96v-51.48c6.04-9.91 19.82-18.53 34.26-18.53 23.26 0 36.4 19.17 36.4 44.38ZM1918.73 773.56c0 32.1 21.75 54.71 52.13 54.71 17.23 0 30.37-6.03 40.71-16.8l-5.82-7.32c-8.83 9.47-20.9 14.43-34.03 14.43-24.56 0-39.64-18.74-40.71-41.36h87.02v-3.02c0-29.94-17.45-55.14-49.11-55.14-28.87 0-50.2 24.34-50.2 54.5Zm49.97-44.81c26.07 0 37.7 21.97 37.92 39.64H1931c.86-18.1 13.14-39.64 37.7-39.64ZM2046.9 825.69h11.2v-75.83c4.74-9.05 18.96-18.52 29.51-18.52 2.16 0 3.66 0 5.6.43v-12.28c-14.43 0-26.28 8.4-35.11 20.03v-17.88h-11.2V825.7ZM2121 679.85a9.33 9.33 0 0 0-9.26 9.26c0 5.17 3.66 9.05 8.83 9.05.64 0 2.15-.21 2.15-.43-.43 6.9-5.6 15.3-12.5 20.03l6.26 5.17c8.4-5.81 15.5-17.23 15.5-29.3 0-8.82-5.16-13.78-10.98-13.78ZM2146.85 811.9c10.34 11.42 23.27 16.37 40.07 16.37 26.06 0 38.99-13.78 38.99-30.59 0-22.18-20.04-27.14-37.92-31.66-14.43-3.67-27.78-6.9-27.78-18.74 0-10.77 9.9-18.75 26.06-18.75 13.79 0 24.99 5.6 31.02 13.8l6.25-7.98c-7.54-8.4-19.39-15.3-37.27-15.3-23.48 0-37.05 12.93-37.05 28.87 0 20.25 19.17 24.77 36.62 29.08 14.86 3.88 29.08 7.76 29.08 21.11 0 12.07-10.34 20.68-27.79 20.68-14.65 0-26.92-6.89-33.6-15.3l-6.68 8.41ZM2333.19 828.27c8.61 0 13.57-2.58 17.66-6.46l-4.3-8.62a16.25 16.25 0 0 1-11.64 4.96c-7.33 0-10.77-5.82-10.77-14.22v-72.38h21.1v-9.9h-21.1V693.2h-11.42v28.43h-17.23v9.91h17.23v74.1c0 14.22 6.68 22.62 20.47 22.62ZM2413.75 828.27c30.8 0 50.19-24.34 50.19-54.71 0-30.38-19.39-54.5-50.2-54.5-30.37 0-49.97 24.12-49.97 54.5 0 30.37 19.6 54.71 49.98 54.71Zm0-10.12c-24.13 0-37.92-21.33-37.92-44.6 0-23.04 13.8-44.37 37.92-44.37 24.55 0 38.13 21.33 38.13 44.38 0 23.26-13.58 44.59-38.13 44.59ZM2536.75 828.27c30.8 0 50.2-24.34 50.2-54.71 0-30.38-19.4-54.5-50.2-54.5-30.37 0-49.98 24.12-49.98 54.5 0 30.37 19.6 54.71 49.98 54.71Zm0-10.12c-24.13 0-37.91-21.33-37.91-44.6 0-23.04 13.78-44.37 37.91-44.37 24.56 0 38.13 21.33 38.13 44.38 0 23.26-13.57 44.59-38.13 44.59ZM2615.6 681.36h10.76v144.33h-10.77zM2734.07 825.69h15.08l-48.25-57.09 48.46-46.96h-14.86l-61.4 59.46V682h-11.2V825.7h11.2v-31.24l19.4-18.3 41.57 49.54ZM2776.3 703.98a8.64 8.64 0 0 0 8.6-8.62 8.64 8.64 0 0 0-8.6-8.62 8.78 8.78 0 0 0-8.62 8.62c0 4.74 4.09 8.62 8.61 8.62Zm-5.6 121.7h11.2V721.65h-11.2V825.7ZM2839.4 828.27c8.62 0 13.58-2.58 17.67-6.46l-4.3-8.62a16.25 16.25 0 0 1-11.64 4.96c-7.32 0-10.77-5.82-10.77-14.22v-72.38h21.1v-9.9h-21.1V693.2h-11.42v28.43h-17.23v9.91h17.23v74.1c0 14.22 6.68 22.62 20.47 22.62ZM2935.48 825.69h11.2v-94.14h21.11v-9.9h-21.1v-9.49c0-14.43 6.24-22.62 18.09-22.62 3.87 0 6.89.87 9.48 2.37l3.44-8.83c-4.1-2.37-8.83-3.23-14-3.23-17.23 0-28.22 11.85-28.22 32.31v9.48h-17.23v9.91h17.23v94.14ZM3032.85 828.27c30.8 0 50.2-24.34 50.2-54.71 0-30.38-19.4-54.5-50.2-54.5-30.37 0-49.98 24.12-49.98 54.5 0 30.37 19.6 54.71 49.98 54.71Zm0-10.12c-24.13 0-37.91-21.33-37.91-44.6 0-23.04 13.78-44.37 37.9-44.37 24.57 0 38.14 21.33 38.14 44.38 0 23.26-13.57 44.59-38.13 44.59ZM3111.9 825.69h11.2v-75.83c4.75-9.05 18.97-18.52 29.52-18.52 2.16 0 3.66 0 5.6.43v-12.28c-14.43 0-26.28 8.4-35.11 20.03v-17.88h-11.2V825.7ZM3235.98 825.69h11.2V809.1c7.33 10.77 20.69 19.17 36.2 19.17 27.57 0 46.52-21.1 46.52-54.5 0-32.96-18.74-54.71-46.53-54.71-14.64 0-27.78 7.54-36.18 19.38v-56.43h-11.2v143.68Zm11.2-26.07v-51.48c6.04-9.91 19.82-18.96 34.26-18.96 23.26 0 36.4 19.39 36.4 44.6 0 25.2-13.14 44.37-36.4 44.37-14.44 0-28.22-8.62-34.25-18.53ZM3429.21 825.69h11.2V721.64h-11.2v79.27c-6.9 9.27-20.46 17.24-33.82 17.24-15.08 0-25.2-5.6-25.2-25.85v-70.66h-11.2v73.24c0 23.48 11.41 33.4 32.74 33.4 15.08 0 28.87-8.4 37.48-17.89v15.3ZM3480.91 703.98a8.64 8.64 0 0 0 8.62-8.62 8.64 8.64 0 0 0-8.62-8.62 8.78 8.78 0 0 0-8.62 8.62c0 4.74 4.1 8.62 8.62 8.62Zm-5.6 121.7h11.2V721.65h-11.2V825.7ZM3521.2 681.36h10.76v144.33h-10.77zM3644.2 825.69h11.41V682h-11.42v56.43c-8.4-11.84-21.32-19.38-36.19-19.38-27.57 0-46.53 21.75-46.53 54.71 0 33.4 18.96 54.5 46.53 54.5 15.51 0 28.87-8.4 36.2-19.17v16.59Zm0-26.07c-6.04 9.91-19.6 18.53-34.26 18.53-23.05 0-36.4-19.17-36.4-44.38 0-25.2 13.35-44.59 36.4-44.59 14.65 0 28.22 8.83 34.25 18.96v51.48ZM3696.11 703.98a8.64 8.64 0 0 0 8.62-8.62 8.64 8.64 0 0 0-8.62-8.62 8.78 8.78 0 0 0-8.62 8.62c0 4.74 4.1 8.62 8.62 8.62Zm-5.6 121.7h11.2V721.65h-11.2V825.7ZM3806.83 825.69h11.2v-72.81c0-23.48-11.63-33.82-32.74-33.82-15.08 0-29.94 9.26-37.48 18.3v-15.72h-11.2V825.7h11.2v-78.63c6.68-9.48 20.47-17.88 33.82-17.88 15.08 0 25.2 6.03 25.2 26.07v70.44ZM3853.13 852.18c12.28 12.5 23.48 15.73 40.93 15.73 25.42 0 46.96-11.42 46.96-43.3V721.64h-11.41v16.8c-8.4-11.84-21.33-19.38-36.2-19.38-27.57 0-46.52 21.54-46.52 54.5 0 33.39 18.95 54.28 46.53 54.28 15.5 0 28.86-8.83 36.19-19.39v16.38c0 23.9-16.6 33.38-35.55 33.38-15.5 0-25.42-3.87-34.46-14.64l-6.47 8.61Zm76.48-53.42c-6.04 10.12-19.82 18.96-34.26 18.96-23.04 0-36.4-18.96-36.4-44.16 0-25.2 13.36-44.38 36.4-44.38 14.44 0 28.22 8.83 34.26 18.96v50.62ZM4155.36 825.69h11.2v-74.97c0-20.9-9.26-31.66-28.44-31.66-14.64 0-28.65 9.9-34.46 19.6-2.59-10.13-11.2-19.6-27.36-19.6-15.08 0-29.3 11.63-33.6 18.3v-15.72h-11.2V825.7h11.2v-78.63c6.24-9.48 18.74-17.88 29.72-17.88 14.87 0 20.9 9.05 20.9 23.7v72.8h11.41v-78.83c5.82-9.48 18.53-17.67 29.73-17.67 14.65 0 20.9 9.05 20.9 23.7v72.8ZM4195.45 773.56c0 32.1 21.75 54.71 52.13 54.71 17.23 0 30.37-6.03 40.71-16.8l-5.81-7.32c-8.84 9.47-20.9 14.43-34.04 14.43-24.56 0-39.64-18.74-40.71-41.36h87.02v-3.02c0-29.94-17.44-55.14-49.11-55.14-28.87 0-50.2 24.34-50.2 54.5Zm49.97-44.81c26.07 0 37.7 21.97 37.92 39.64h-75.61c.86-18.1 13.14-39.64 37.7-39.64ZM4346.22 828.27c8.62 0 13.58-2.58 17.67-6.46l-4.31-8.62a16.25 16.25 0 0 1-11.63 4.96c-7.33 0-10.77-5.82-10.77-14.22v-72.38h21.1v-9.9h-21.1V693.2h-11.42v28.43h-17.23v9.91h17.23v74.1c0 14.22 6.68 22.62 20.46 22.62ZM4449 825.69h11.2v-73.24c0-23.27-16.8-33.4-37.9-33.4-17.24 0-29.3 5.82-40.07 17.46l6.24 7.75c9.48-10.77 19.6-15.3 32.53-15.3 15.51 0 28 8.4 28 23.92v21.1c-9.04-10.12-20.89-14.86-35.32-14.86-18.1 0-36.4 11.85-36.4 34.47 0 22.4 18.52 34.68 36.4 34.68 14.43 0 26.06-4.74 35.33-14.86v12.28Zm0-20.47c-7.32 9.48-18.95 14.22-31.45 14.22-17.23 0-28.43-10.99-28.43-25.63 0-14.87 11.2-25.85 28.43-25.85 12.5 0 24.13 4.95 31.46 14.43v22.83ZM4495.1 825.69h11.2V809.1c7.32 10.77 20.67 19.17 36.18 19.17 27.58 0 46.53-21.1 46.53-54.5 0-32.96-18.74-54.71-46.53-54.71-14.65 0-27.79 7.54-36.19 19.38v-56.43h-11.2v143.68Zm11.2-26.07v-51.48c6.02-9.91 19.81-18.96 34.24-18.96 23.27 0 36.4 19.39 36.4 44.6 0 25.2-13.13 44.37-36.4 44.37-14.43 0-28.22-8.62-34.25-18.53ZM4662.03 828.27c30.8 0 50.19-24.34 50.19-54.71 0-30.38-19.4-54.5-50.2-54.5-30.37 0-49.97 24.12-49.97 54.5 0 30.37 19.6 54.71 49.98 54.71Zm0-10.12c-24.13 0-37.92-21.33-37.92-44.6 0-23.04 13.79-44.37 37.92-44.37 24.55 0 38.12 21.33 38.12 44.38 0 23.26-13.57 44.59-38.12 44.59ZM4802.06 825.69h13.36l-41.15-53.43 38.78-50.62h-13.36l-32.1 42.87-32.3-42.87h-13.36l38.77 50.62-41.14 53.43h13.35l34.68-45.89 34.47 45.89ZM4822.71 773.56c0 32.1 21.76 54.71 52.13 54.71 17.24 0 30.38-6.03 40.72-16.8l-5.82-7.32c-8.83 9.47-20.9 14.43-34.04 14.43-24.55 0-39.63-18.74-40.7-41.36h87.02v-3.02c0-29.94-17.45-55.14-49.12-55.14-28.86 0-50.19 24.34-50.19 54.5Zm49.98-44.81c26.06 0 37.7 21.97 37.91 39.64H4835c.85-18.1 13.13-39.64 37.69-39.64ZM4941.87 811.9c10.34 11.42 23.26 16.37 40.07 16.37 26.06 0 38.99-13.78 38.99-30.59 0-22.18-20.04-27.14-37.92-31.66-14.43-3.67-27.79-6.9-27.79-18.74 0-10.77 9.91-18.75 26.07-18.75 13.79 0 24.99 5.6 31.02 13.8l6.25-7.98c-7.54-8.4-19.4-15.3-37.27-15.3-23.48 0-37.05 12.93-37.05 28.87 0 20.25 19.17 24.77 36.62 29.08 14.86 3.88 29.08 7.76 29.08 21.11 0 12.07-10.34 20.68-27.79 20.68-14.65 0-26.93-6.89-33.6-15.3l-6.68 8.41ZM5194.3 799.4c8.62-12.49 14.43-26.92 18.96-38.34l-10.34-4.3c-2.37 7.75-7.54 21.97-16.16 34.9a645.4 645.4 0 0 1-19.39-21.12c-5.17-5.82-12.06-13.79-18.3-22.62 18.3-9.9 37.04-19.39 37.04-40.93 0-17.45-12.49-27.14-30.37-27.14-18.74 0-34.04 13.79-34.04 32.74 0 10.13 4.74 21.55 11.64 32.75-16.59 9.26-32.1 20.9-32.1 43.73 0 25.85 19.6 39.2 43.51 39.2 18.31 0 32.1-8.4 42.44-19.82a309.62 309.62 0 0 0 17.88 17.24h17.02a697.69 697.69 0 0 1-27.79-26.28Zm-60.53-86.59c0-13.79 10.12-23.48 22.4-23.48 10.56 0 18.74 6.25 18.74 18.1 0 16.15-14.86 24.12-31.23 32.52-5.6-9.26-9.91-18.74-9.91-27.14Zm11.85 105.55c-16.6 0-31.89-10.34-31.89-29.94 0-17.02 11.42-26.71 25-34.9a282.73 282.73 0 0 0 19.38 24.34c4.3 5.17 12.7 14 21.54 23.05-8.83 9.91-20.03 17.45-34.03 17.45ZM5306.96 825.69h11.2v-94.14h21.1v-9.9h-21.1v-9.49c0-14.43 6.25-22.62 18.1-22.62 3.87 0 6.89.87 9.47 2.37l3.45-8.83c-4.1-2.37-8.83-3.23-14-3.23-17.24 0-28.22 11.85-28.22 32.31v9.48h-17.24v9.91h17.24v94.14ZM5404.33 828.27c30.8 0 50.19-24.34 50.19-54.71 0-30.38-19.39-54.5-50.2-54.5-30.37 0-49.97 24.12-49.97 54.5 0 30.37 19.6 54.71 49.98 54.71Zm0-10.12c-24.13 0-37.92-21.33-37.92-44.6 0-23.04 13.79-44.37 37.92-44.37 24.55 0 38.12 21.33 38.12 44.38 0 23.26-13.57 44.59-38.12 44.59ZM5483.42 825.69h11.2v-75.83c4.74-9.05 18.95-18.52 29.51-18.52 2.15 0 3.66 0 5.6.43v-12.28c-14.43 0-26.28 8.4-35.11 20.03v-17.88h-11.2V825.7ZM5675.55 825.69h11.2v-74.97c0-20.9-9.26-31.66-28.44-31.66-14.64 0-28.65 9.9-34.46 19.6-2.59-10.13-11.2-19.6-27.36-19.6-15.08 0-29.3 11.63-33.6 18.3v-15.72h-11.2V825.7h11.2v-78.63c6.24-9.48 18.74-17.88 29.72-17.88 14.87 0 20.9 9.05 20.9 23.7v72.8h11.41v-78.83c5.82-9.48 18.53-17.67 29.73-17.67 14.65 0 20.9 9.05 20.9 23.7v72.8ZM5712.62 811.9c10.34 11.42 23.27 16.37 40.07 16.37 26.06 0 38.99-13.78 38.99-30.59 0-22.18-20.03-27.14-37.91-31.66-14.44-3.67-27.8-6.9-27.8-18.74 0-10.77 9.92-18.75 26.07-18.75 13.79 0 24.99 5.6 31.02 13.8l6.25-7.98c-7.54-8.4-19.39-15.3-37.27-15.3-23.48 0-37.05 12.93-37.05 28.87 0 20.25 19.17 24.77 36.62 29.08 14.87 3.88 29.08 7.76 29.08 21.11 0 12.07-10.34 20.68-27.79 20.68-14.64 0-26.92-6.89-33.6-15.3l-6.68 8.41ZM1158.53 1043.69c8.62 0 13.57-2.59 17.66-6.46l-4.3-8.62a16.25 16.25 0 0 1-11.64 4.96c-7.32 0-10.77-5.82-10.77-14.22v-72.38h21.11v-9.91h-21.1v-28.43h-11.42v28.43h-17.24v9.9h17.24v74.11c0 14.22 6.67 22.62 20.46 22.62ZM1265.37 1041.1h11.2v-73.24c0-23.48-11.63-33.39-32.74-33.39-15.08 0-29.94 9.27-37.48 18.31v-55.36h-11.2v143.68h11.2v-78.62c6.68-9.48 20.46-17.88 33.82-17.88 15.08 0 25.2 5.6 25.2 25.63v70.87ZM1377.6 1041.1h11.2v-73.24c0-23.26-16.8-33.39-37.9-33.39-17.24 0-29.3 5.82-40.07 17.45l6.24 7.76c9.48-10.77 19.6-15.3 32.53-15.3 15.51 0 28 8.4 28 23.91v21.12c-9.04-10.13-20.89-14.87-35.32-14.87-18.1 0-36.4 11.85-36.4 34.47 0 22.4 18.52 34.68 36.4 34.68 14.43 0 26.06-4.74 35.33-14.86v12.27Zm0-20.46c-7.32 9.48-18.95 14.22-31.44 14.22-17.24 0-28.44-10.99-28.44-25.64 0-14.86 11.2-25.85 28.44-25.85 12.49 0 24.12 4.96 31.45 14.44v22.83ZM1446.32 1043.69c8.62 0 13.57-2.59 17.67-6.46l-4.31-8.62a16.25 16.25 0 0 1-11.63 4.96c-7.33 0-10.77-5.82-10.77-14.22v-72.38h21.1v-9.91h-21.1v-28.43h-11.42v28.43h-17.23v9.9h17.23v74.11c0 14.22 6.68 22.62 20.46 22.62ZM1627.92 1041.1h10.77l33.82-104.04h-12.06l-27.58 88.32-29.3-88.32h-9.69l-29.3 88.32-27.57-88.32h-12.06l33.82 104.04h10.77l29.3-88.96 29.08 88.96ZM1699.22 919.4a8.64 8.64 0 0 0 8.62-8.62 8.64 8.64 0 0 0-8.62-8.62 8.78 8.78 0 0 0-8.62 8.62c0 4.74 4.1 8.62 8.62 8.62Zm-5.6 121.7h11.2V937.06h-11.2v104.04ZM1739.5 896.78h10.77v144.32h-10.77zM1785.6 896.78h10.77v144.32h-10.77zM1887.7 1041.1h11.2v-16.58c7.33 10.77 20.69 19.17 36.2 19.17 27.57 0 46.53-21.11 46.53-54.5 0-32.96-18.74-54.72-46.53-54.72-14.65 0-27.79 7.54-36.2 19.4v-56.45h-11.2v143.68Zm11.2-26.06v-51.48c6.04-9.91 19.83-18.96 34.26-18.96 23.26 0 36.4 19.39 36.4 44.59 0 25.2-13.14 44.38-36.4 44.38-14.43 0-28.22-8.62-34.25-18.53ZM2010.5 896.78h10.77v144.32h-10.78zM2100.75 1043.69c30.8 0 50.2-24.34 50.2-54.72 0-30.37-19.4-54.5-50.2-54.5-30.37 0-49.98 24.13-49.98 54.5 0 30.38 19.6 54.72 49.98 54.72Zm0-10.12c-24.13 0-37.91-21.33-37.91-44.6 0-23.04 13.78-44.37 37.91-44.37 24.56 0 38.13 21.33 38.13 44.37 0 23.27-13.57 44.6-38.13 44.6ZM2269 1041.1h10.76l33.82-104.04h-12.06l-27.57 88.32-29.3-88.32h-9.7l-29.3 88.32-27.56-88.32h-12.07l33.82 104.04h10.77l29.3-88.96 29.08 88.96ZM2385.53 1071.48l-1.94 10.34c2.8.86 7.54 1.5 10.99 1.5 12.27 0 21.1-6.24 26.7-19.38l53.86-126.88h-12.7l-37.5 90.9-37.9-90.9h-12.5l43.95 104.9-8.19 18.53c-4.1 9.91-8.83 12.71-15.72 12.71-2.59 0-6.68-.64-9.05-1.72ZM2538.04 1043.69c30.8 0 50.2-24.34 50.2-54.72 0-30.37-19.4-54.5-50.2-54.5-30.37 0-49.98 24.13-49.98 54.5 0 30.38 19.6 54.72 49.98 54.72Zm0-10.12c-24.13 0-37.91-21.33-37.91-44.6 0-23.04 13.78-44.37 37.91-44.37 24.56 0 38.13 21.33 38.13 44.37 0 23.27-13.57 44.6-38.13 44.6ZM2687.32 1041.1h11.2V937.06h-11.2v79.27c-6.89 9.27-20.46 17.24-33.82 17.24-15.07 0-25.2-5.6-25.2-25.85v-70.66h-11.2v73.24c0 23.48 11.42 33.39 32.74 33.39 15.08 0 28.87-8.4 37.48-17.88v15.3ZM2733.42 1041.1h11.2v-75.82c4.74-9.05 18.96-18.53 29.52-18.53 2.15 0 3.66 0 5.6.43v-12.27c-14.44 0-26.28 8.4-35.12 20.03v-17.88h-11.2v104.04ZM2981.37 1041.1h11.2v-74.96c0-20.9-9.27-31.67-28.44-31.67-14.65 0-28.65 9.91-34.46 19.6-2.59-10.12-11.2-19.6-27.36-19.6-15.08 0-29.3 11.64-33.6 18.31v-15.72h-11.2v104.04h11.2v-78.62c6.24-9.48 18.73-17.88 29.72-17.88 14.86 0 20.9 9.05 20.9 23.7v72.8h11.41v-78.84c5.82-9.48 18.53-17.66 29.73-17.66 14.65 0 20.9 9.05 20.9 23.7v72.8ZM3033.07 919.4a8.64 8.64 0 0 0 8.61-8.62 8.64 8.64 0 0 0-8.61-8.62 8.78 8.78 0 0 0-8.62 8.62c0 4.74 4.1 8.62 8.62 8.62Zm-5.6 121.7h11.2V937.06h-11.2v104.04ZM3143.79 1041.1h11.2v-72.8c0-23.49-11.63-33.83-32.75-33.83-15.07 0-29.94 9.27-37.48 18.31v-15.72h-11.2v104.04h11.2v-78.62c6.68-9.48 20.47-17.88 33.82-17.88 15.08 0 25.2 6.03 25.2 26.06v70.44ZM3266.58 1041.1h11.41V897.42h-11.41v56.44c-8.4-11.85-21.33-19.39-36.2-19.39-27.57 0-46.52 21.76-46.52 54.72 0 33.39 18.95 54.5 46.53 54.5 15.5 0 28.86-8.4 36.19-19.17v16.58Zm0-26.06c-6.04 9.9-19.6 18.53-34.26 18.53-23.04 0-36.4-19.18-36.4-44.38 0-25.2 13.36-44.6 36.4-44.6 14.65 0 28.22 8.84 34.26 18.97v51.48ZM3309.44 1033.57c0 5.17 4.3 9.69 9.48 9.69 5.17 0 9.7-4.52 9.7-9.7 0-4.95-4.53-9.26-9.7-9.26-5.17 0-9.48 4.31-9.48 9.27Z" fill="#fff" fill-rule="nonzero"/></svg>