<svg viewBox="0 0 4267 4267" xmlns="http://www.w3.org/2000/svg" xml:space="preserve" fill-rule="evenodd" clip-rule="evenodd" stroke-linecap="round" stroke-linejoin="round" stroke-miterlimit="1.5"><path fill="#5d67ff" d="M0 0h4266.67v4266.67H0z"/><g opacity=".54" fill="#fff"><path d="M1389.58 1169.79a26.05 26.05 0 0 0-26.04-26.04h-52.08a26.05 26.05 0 0 0-26.05 26.04v52.08a26.05 26.05 0 0 0 26.04 26.05h52.09a26.05 26.05 0 0 0 26.04-26.05v-52.08ZM1531.25 1169.79a26.05 26.05 0 0 0-26.04-26.04h-52.08a26.05 26.05 0 0 0-26.05 26.04v52.08a26.05 26.05 0 0 0 26.05 26.05h52.08a26.05 26.05 0 0 0 26.04-26.05v-52.08ZM1672.92 1169.79a26.05 26.05 0 0 0-26.04-26.04h-52.08a26.05 26.05 0 0 0-26.05 26.04v52.08a26.05 26.05 0 0 0 26.05 26.05h52.08a26.05 26.05 0 0 0 26.04-26.05v-52.08Z"/></g><path fill="none" stroke="#fff" stroke-width="83.33" d="M1056.25 839.58h2154.17v654.17H1056.25z"/><path d="M1494.13 3194.07c25.2 25.2 62 42.4 113.2 42.4 72 0 106.8-36.8 106.8-85.6 0-59.2-56-72.4-100-82.4-30.8-7.2-53.2-12.8-53.2-30.8 0-16 13.6-27.2 39.2-27.2 26 0 54.8 9.2 76.4 29.2l31.6-41.6c-26.4-24.4-61.6-37.2-104-37.2-62.8 0-101.2 36-101.2 80.4 0 59.6 56 71.6 99.6 81.6 30.8 7.2 54 14 54 34 0 15.2-15.2 30-46.4 30-36.8 0-66-16.4-84.8-36l-31.2 43.2ZM1881.73 3231.67h50.8v-193.2h-50.8v130.8c-8.8 11.2-24.4 22-44 22-21.6 0-35.6-8.8-35.6-35.6v-117.2h-50.8v137.2c0 37.6 20 60.8 62.4 60.8 31.6 0 54.8-14.4 68-29.2v24.4ZM1982.93 3231.67h50.8v-24.4c15.2 18.8 36.4 29.2 59.6 29.2 48.8 0 85.6-36.8 85.6-101.2 0-63.2-36.4-101.6-85.6-101.6-22.8 0-44.4 10-59.6 29.6v-98.4h-50.8v266.8Zm50.8-62v-68.4c8.4-12.8 27.2-22.4 43.6-22.4 29.6 0 49.2 22.8 49.2 56.4 0 33.6-19.6 56-49.2 56-16.4 0-35.2-9.2-43.6-21.6ZM2456.93 3231.67h51.2v-139.6c0-39.6-21.2-58.4-56.8-58.4-29.6 0-55.2 17.6-66.4 35.2-7.2-22-25.2-35.2-53.6-35.2-29.6 0-55.2 18.4-63.2 30v-25.2h-50.8v193.2h50.8v-130c7.6-10.8 22.4-22.8 40-22.8 20.8 0 28.8 12.8 28.8 30.8v122h51.2v-130.4c7.2-10.4 22-22.4 40-22.4 20.8 0 28.8 12.8 28.8 30.8v122ZM2583.33 3010.07c16.8 0 30.4-13.6 30.4-30.4 0-16.8-13.6-30.4-30.4-30.4-16.4 0-30.4 13.6-30.4 30.4 0 16.8 14 30.4 30.4 30.4Zm-25.2 221.6h50.8v-193.2h-50.8v193.2ZM2724.13 3236.47c21.2 0 34.8-5.6 42.4-12.4l-10.8-38.4c-2.8 2.8-10 5.6-17.6 5.6-11.2 0-17.6-9.2-17.6-21.2v-87.2h39.2v-44.4h-39.2v-52.8h-51.2v52.8h-32v44.4h32v100.8c0 34.4 19.2 52.8 54.8 52.8Z" fill="#fff" fill-rule="nonzero"/><path fill="none" stroke="#fff" stroke-width="83.33" d="M1056.25 2772.92h2154.17v654.17H1056.25z"/><g opacity=".54"><path d="M2672.42 1980.05a22.11 22.11 0 0 0-31.26 0l-55.57 55.57a22.11 22.11 0 0 0 0 31.26l258.66 258.66a22.11 22.11 0 0 0 31.26 0l55.57-55.57a22.11 22.11 0 0 0 0-31.26l-258.66-258.66Z" fill="#fff"/><path d="M2931.08 2066.87a22.11 22.11 0 0 0 0-31.26l-55.57-55.57a22.11 22.11 0 0 0-31.26 0L2585.6 2238.7a22.11 22.11 0 0 0 0 31.26l55.57 55.57a22.11 22.11 0 0 0 31.26 0l258.66-258.66Z" fill="#fff"/><path fill="none" stroke="#fff" stroke-width="83.33" d="M2306.25 1825.71h904.17v654.17h-904.17z"/></g><path d="M1718.22 2077.17a19.78 19.78 0 0 0 0-27.96l-49.7-49.7a19.78 19.78 0 0 0-27.97 0l-253.76 253.76a19.78 19.78 0 0 0 0 27.96l49.7 49.7a19.78 19.78 0 0 0 27.97 0l253.76-253.76Z" fill="#fff"/><path d="M1436.5 2330.94a19.78 19.78 0 0 0 27.96 0l49.7-49.7a19.78 19.78 0 0 0 0-27.97l-151.73-151.74a19.78 19.78 0 0 0-27.96 0l-49.7 49.71a19.78 19.78 0 0 0 0 27.96l151.73 151.74Z" fill="#fff"/><path fill="none" stroke="#fff" stroke-width="83.33" d="M1056.25 1825.71h904.17v654.17h-904.17z"/><path d="m2762.58 1216.51-163.79-163.79-65.62 65.62 229.41 229.41 218.63-218.63-65.62-65.62-153.01 153.01Z" fill="#fff"/></svg>